<mxfile host="app.diagrams.net" modified="2023-04-06T21:58:32.170Z" agent="Mozilla/5.0 (Windows NT 10.0; Win64; x64) AppleWebKit/537.36 (KHTML, like Gecko) Chrome/111.0.0.0 Safari/537.36 Edg/111.0.1661.62" version="21.1.5" etag="IA8I4b5bW_JRISLOFPCl" type="github">
  <diagram name="Page-1" id="Q78gC4wUWg3SQ9BuLric">
    <mxGraphModel>
      <root>
        <mxCell id="0" />
        <mxCell id="1" parent="0" />
      </root>
    </mxGraphModel>
  </diagram>
</mxfile>
